<svg width="24" height="10" viewBox="0 0 24 10" fill="none" xmlns="http://www.w3.org/2000/svg">
<path d="M12.0003 0C12.0003 5.52284 6.62769 9.99996 0.000276685 9.99996C0.000276685 9.99996 0 6.10017 0 0C6.62742 0 12.0003 0 12.0003 0Z" fill="#F3E8D7"/>
<path d="M12.0003 0C12.0003 5.52284 6.62769 9.99996 0.000276685 9.99996C0.000276685 9.99996 0 6.10017 0 0C6.62742 0 12.0003 0 12.0003 0Z" fill="#F3E8D7"/>
<path d="M12.0003 0C12.0003 5.52284 17.3729 10.0001 24.0003 10.0001C24.0003 10.0001 24.0006 6.10028 24.0006 0.00011158C17.3731 0.00011158 12.0003 0 12.0003 0Z" fill="#F3E8D7"/>
</svg>
