<svg width="250" height="250" viewBox="0 0 250 250" fill="none" xmlns="http://www.w3.org/2000/svg">
<g opacity="0.1">
<mask id="mask0_189_787" style="mask-type:alpha" maskUnits="userSpaceOnUse" x="0" y="0" width="250" height="250">
<rect width="250" height="250" fill="#D9D9D9"/>
</mask>
<g mask="url(#mask0_189_787)">
<g clip-path="url(#clip0_189_787)">
<path d="M77.2629 129.471C78.0687 132.775 77.5289 136.265 75.7622 139.171C73.9954 142.077 71.1465 144.163 67.8422 144.969C64.5378 145.774 61.0486 145.235 58.1423 143.468C55.236 141.701 53.1505 138.852 52.3447 135.548C51.2823 131.191 51.634 126.052 53.307 121.447C54.9408 116.958 57.4832 113.895 60.1081 113.254C62.733 112.614 66.4003 114.163 69.9173 117.396C73.5224 120.714 76.2005 125.115 77.2629 129.471Z" fill="#011627"/>
</g>
<path d="M195.125 231.5H184.125C183.914 231.5 183.707 231.548 183.518 231.641C183.329 231.734 183.164 231.869 183.035 232.036L172.035 246.338L170.375 244.681C170.12 244.425 169.816 244.223 169.482 244.084C169.149 243.946 168.791 243.875 168.429 243.875C168.068 243.875 167.71 243.946 167.376 244.084C167.042 244.223 166.739 244.425 166.484 244.681L164.303 246.864C164.047 247.119 163.845 247.422 163.706 247.756C163.568 248.09 163.497 248.447 163.497 248.809C163.497 249.17 163.568 249.528 163.706 249.861C163.845 250.195 164.047 250.498 164.303 250.753L167.74 254.191L162.928 259.003C162.672 259.259 162.47 259.562 162.331 259.896C162.193 260.229 162.122 260.587 162.122 260.948C162.122 261.309 162.193 261.667 162.331 262.001C162.47 262.334 162.672 262.638 162.928 262.893L165.109 265.072C165.624 265.588 166.324 265.877 167.053 265.877C167.782 265.877 168.481 265.588 168.997 265.072L173.809 260.26L177.247 263.697C177.502 263.953 177.805 264.156 178.139 264.294C178.473 264.433 178.831 264.504 179.192 264.504C179.554 264.504 179.911 264.433 180.245 264.294C180.579 264.156 180.882 263.953 181.138 263.697L183.319 261.515C183.574 261.259 183.777 260.956 183.915 260.622C184.053 260.289 184.125 259.931 184.125 259.57C184.125 259.209 184.053 258.851 183.915 258.517C183.777 258.184 183.574 257.88 183.319 257.625L181.662 255.968L195.964 244.968C196.131 244.839 196.266 244.674 196.359 244.484C196.452 244.295 196.501 244.086 196.5 243.875V232.875C196.5 232.51 196.355 232.161 196.097 231.903C195.839 231.645 195.49 231.5 195.125 231.5ZM193.75 243.198L179.701 254.005L177.821 252.125L186.473 243.473C186.731 243.215 186.875 242.865 186.875 242.5C186.875 242.136 186.73 241.786 186.472 241.528C186.214 241.27 185.864 241.126 185.499 241.126C185.135 241.126 184.785 241.271 184.527 241.529L175.875 250.179L173.996 248.299L184.802 234.25H193.75V243.198Z" fill="#011627"/>
<path d="M195.125 -18.5H184.125C183.914 -18.5 183.707 -18.4517 183.518 -18.3587C183.329 -18.2657 183.164 -18.1306 183.035 -17.9638L172.035 -3.66203L170.375 -5.31891C170.12 -5.57459 169.816 -5.77743 169.482 -5.91582C169.149 -6.05421 168.791 -6.12544 168.429 -6.12544C168.068 -6.12544 167.71 -6.05421 167.376 -5.91582C167.042 -5.77743 166.739 -5.57459 166.484 -5.31891L164.303 -3.13609C164.047 -2.88072 163.845 -2.57754 163.706 -2.24385C163.568 -1.91017 163.497 -1.55252 163.497 -1.19133C163.497 -0.830139 163.568 -0.47249 163.706 -0.138803C163.845 0.194883 164.047 0.49807 164.303 0.753439L167.74 4.19094L162.928 9.00344C162.672 9.25881 162.47 9.56199 162.331 9.89568C162.193 10.2294 162.122 10.587 162.122 10.9482C162.122 11.3094 162.193 11.667 162.331 12.0007C162.47 12.3344 162.672 12.6376 162.928 12.893L165.109 15.0723C165.624 15.5877 166.324 15.8772 167.053 15.8772C167.782 15.8772 168.481 15.5877 168.997 15.0723L173.809 10.2598L177.247 13.6973C177.502 13.953 177.805 14.1559 178.139 14.2943C178.473 14.4326 178.831 14.5039 179.192 14.5039C179.554 14.5039 179.911 14.4326 180.245 14.2943C180.579 14.1559 180.882 13.953 181.138 13.6973L183.319 11.5145C183.574 11.2592 183.777 10.956 183.915 10.6223C184.053 10.2886 184.125 9.93095 184.125 9.56977C184.125 9.20858 184.053 8.85093 183.915 8.51724C183.777 8.18356 183.574 7.88037 183.319 7.625L181.662 5.96812L195.964 -5.03187C196.131 -5.16068 196.266 -5.32628 196.359 -5.51585C196.452 -5.70541 196.501 -5.91385 196.5 -6.125V-17.125C196.5 -17.4897 196.355 -17.8394 196.097 -18.0973C195.839 -18.3551 195.49 -18.5 195.125 -18.5ZM193.75 -6.80219L179.701 4.00531L177.821 2.125L186.473 -6.52719C186.731 -6.78519 186.875 -7.13503 186.875 -7.49975C186.875 -7.86446 186.73 -8.21418 186.472 -8.47195C186.214 -8.72973 185.864 -8.87446 185.499 -8.8743C185.135 -8.87414 184.785 -8.7291 184.527 -8.47109L175.875 0.179375L173.996 -1.70094L184.802 -15.75H193.75V-6.80219Z" fill="#011627"/>
<g clip-path="url(#clip1_189_787)">
<path d="M115.951 68.7952C115.104 71.9537 115.214 75.2921 116.265 78.3885C117.316 81.4848 119.261 84.2 121.855 86.1906C124.45 88.1811 127.576 89.3577 130.839 89.5716C134.102 89.7855 137.355 89.027 140.186 87.392C143.018 85.7571 145.302 83.3191 146.748 80.3865C148.194 77.4538 148.738 74.1581 148.311 70.9162C147.885 67.6743 146.506 64.6318 144.35 62.1734C142.194 59.7149 139.357 57.951 136.199 57.1047C131.964 55.9747 127.453 56.5709 123.657 58.7626C119.861 60.9543 117.089 64.5624 115.951 68.7952ZM126.947 63.2527L135.457 70.7996C135.56 70.8915 135.63 71.0135 135.658 71.1481L137.939 82.2921C137.966 82.423 137.951 82.5591 137.896 82.681C137.842 82.803 137.75 82.9046 137.634 82.9714C137.518 83.0383 137.385 83.0669 137.252 83.0533C137.119 83.0397 136.993 82.9846 136.893 82.8957L128.383 75.3488C128.28 75.2569 128.21 75.1349 128.181 75.0003L125.901 63.8563C125.874 63.7254 125.889 63.5893 125.944 63.4674C125.998 63.3454 126.09 63.2438 126.206 63.1769C126.322 63.1101 126.455 63.0815 126.588 63.095C126.721 63.1086 126.847 63.1638 126.947 63.2527Z" fill="#011627"/>
</g>
<g clip-path="url(#clip2_189_787)">
<path d="M44.9016 44.1109C45.0057 44.7136 44.9205 45.3337 44.6577 45.886C44.3948 46.4382 43.9673 46.8955 43.434 47.1948L34.4654 52.298L32.5389 62.4283C32.4249 63.0282 32.1295 63.5788 31.6927 64.0056C31.2559 64.4325 30.6987 64.7151 30.0963 64.8153C29.4938 64.9155 28.8751 64.8285 28.3237 64.566C27.7722 64.3036 27.3145 63.8783 27.0124 63.3475L21.903 54.399L11.7709 52.4728C11.1709 52.3588 10.6203 52.0634 10.1935 51.6266C9.76664 51.1898 9.48405 50.6326 9.38384 50.0301C9.28363 49.4277 9.37063 48.809 9.63309 48.2576C9.89555 47.7061 10.3208 47.2484 10.8516 46.9463L19.8202 41.843L21.7466 31.7128C21.8607 31.1128 22.156 30.5622 22.5928 30.1354C23.0296 29.7086 23.5869 29.426 24.1893 29.3258C24.7918 29.2255 25.4104 29.3125 25.9619 29.575C26.5134 29.8375 26.971 30.2628 27.2732 30.7935L32.3764 39.7621L42.5067 41.6885C43.1068 41.7963 43.659 42.0869 44.0877 42.5205C44.5164 42.9541 44.8007 43.5096 44.9016 44.1109ZM31.5905 28.0777L34.5498 27.5855L35.042 30.5448C35.1073 30.9372 35.3258 31.2877 35.6495 31.519C35.9731 31.7503 36.3754 31.8436 36.7678 31.7783C37.1603 31.7131 37.5107 31.4946 37.742 31.1709C37.9734 30.8473 38.0667 30.445 38.0014 30.0526L37.5091 27.0932L40.4685 26.601C40.8609 26.5357 41.2113 26.3172 41.4427 25.9936C41.674 25.6699 41.7673 25.2676 41.702 24.8752C41.6368 24.4828 41.4183 24.1323 41.0946 23.901C40.771 23.6697 40.3687 23.5764 39.9762 23.6416L37.0169 24.1339L36.5247 21.1745C36.4594 20.7821 36.2409 20.4317 35.9172 20.2003C35.5936 19.969 35.1913 19.8757 34.7989 19.941C34.4064 20.0063 34.056 20.2248 33.8247 20.5484C33.5933 20.8721 33.5 21.2743 33.5653 21.6668L34.0576 24.6261L31.0982 25.1184C30.7058 25.1836 30.3554 25.4021 30.124 25.7258C29.8927 26.0494 29.7994 26.4517 29.8647 26.8442C29.9299 27.2366 30.1484 27.587 30.4721 27.8183C30.7957 28.0497 31.198 28.143 31.5905 28.0777ZM48.8513 31.2891L47.3716 31.5352L47.1255 30.0555C47.0602 29.6631 46.8418 29.3126 46.5181 29.0813C46.1945 28.85 45.7922 28.7567 45.3997 28.822C45.0073 28.8872 44.6569 29.1057 44.4255 29.4294C44.1942 29.753 44.1009 30.1553 44.1662 30.5477L44.4123 32.0274L42.9326 32.2735C42.5402 32.3388 42.1898 32.5573 41.9584 32.881C41.7271 33.2046 41.6338 33.6069 41.6991 33.9993C41.7644 34.3918 41.9829 34.7422 42.3065 34.9735C42.6301 35.2049 43.0324 35.2982 43.4249 35.2329L44.9045 34.9868L45.1507 36.4664C45.2159 36.8589 45.4344 37.2093 45.7581 37.4406C46.0817 37.672 46.484 37.7653 46.8765 37.7C47.2689 37.6347 47.6193 37.4162 47.8507 37.0926C48.082 36.7689 48.1753 36.3666 48.11 35.9742L47.8639 34.4945L49.3436 34.2484C49.736 34.1831 50.0864 33.9646 50.3178 33.641C50.5491 33.3173 50.6424 32.915 50.5771 32.5226C50.5118 32.1302 50.2933 31.7797 49.9697 31.5484C49.646 31.3171 49.2437 31.2238 48.8513 31.2891Z" fill="#011627"/>
</g>
<g clip-path="url(#clip3_189_787)">
<path d="M19.8924 183.131C19.9736 182.835 19.9435 182.521 19.8079 182.246C19.6722 181.971 19.4404 181.756 19.1565 181.641C8.11399 177.163 -2.05941 177.499 -8.06262 182.559C-10.1337 184.284 -11.6458 186.585 -12.4072 189.171C-12.8927 190.825 -13.106 192.547 -13.0386 194.269C-13.0361 194.375 -13.0069 194.478 -12.9538 194.569C-12.9007 194.66 -12.8254 194.736 -12.7349 194.79C-12.6444 194.845 -12.5417 194.875 -12.4363 194.879C-12.3308 194.883 -12.2262 194.86 -12.132 194.812L4.77312 186.301C4.92038 186.228 5.08052 186.185 5.2444 186.174C5.40829 186.164 5.57271 186.185 5.72827 186.238C5.88383 186.291 6.02749 186.373 6.15105 186.482C6.27461 186.59 6.37564 186.721 6.44838 186.869C6.52112 187.016 6.56415 187.176 6.575 187.34C6.58585 187.504 6.56431 187.668 6.51162 187.824C6.45893 187.979 6.37612 188.123 6.26791 188.246C6.1597 188.37 6.02821 188.471 5.88095 188.544L-12.5924 197.842L-15.4037 199.23C-15.6941 199.369 -15.9217 199.612 -16.0412 199.911C-16.1608 200.209 -16.1635 200.542 -16.0488 200.843C-15.9842 201.002 -15.8874 201.146 -15.7646 201.266C-15.6418 201.387 -15.4955 201.48 -15.3349 201.541C-15.1743 201.602 -15.0028 201.629 -14.8312 201.621C-14.6596 201.613 -14.4915 201.57 -14.3374 201.494L-11.011 199.85C-9.2613 201.572 -7.33644 202.839 -5.26742 203.622C-5.10466 203.684 -4.9414 203.742 -4.77762 203.798C-2.39495 204.612 0.167036 204.747 2.62228 204.189C10.2892 202.497 16.7388 194.623 19.8924 183.131Z" fill="#011627"/>
</g>
<path d="M113.875 224.75H108.279C109.489 226.847 109.974 229.286 109.657 231.687C109.34 234.088 108.24 236.317 106.527 238.029C105.063 239.523 103.157 240.937 101.053 242.242C100.921 242.322 100.767 242.355 100.614 242.337C100.461 242.319 100.318 242.249 100.209 242.14L94.2211 236.152C94.0909 236.022 93.9357 235.919 93.765 235.85C93.5943 235.781 93.4113 235.747 93.2271 235.749C93.0429 235.752 92.8612 235.792 92.6927 235.867C92.5242 235.941 92.3724 236.049 92.2463 236.183C92.0036 236.455 91.8755 236.811 91.8886 237.175C91.9017 237.54 92.0551 237.885 92.3167 238.139L97.4524 243.275C97.5291 243.351 97.5866 243.445 97.6202 243.548C97.6539 243.651 97.6627 243.76 97.6459 243.868C97.6291 243.975 97.5873 244.076 97.5238 244.164C97.4603 244.252 97.3769 244.323 97.2805 244.373C90.4553 247.917 83.1094 250.28 82.0403 250.614C81.5289 250.852 80.9566 250.927 80.401 250.829C79.8454 250.731 79.3334 250.464 78.9345 250.066C78.5355 249.667 78.269 249.155 78.1709 248.599C78.0728 248.043 78.148 247.471 78.3863 246.96C78.8555 245.463 83.3706 231.445 89.5341 224.04C89.5953 223.967 89.6712 223.907 89.7568 223.865C89.8424 223.823 89.9359 223.798 90.0313 223.794C90.1267 223.79 90.2219 223.806 90.3109 223.84C90.3999 223.875 90.4807 223.928 90.5481 223.995L97.7755 231.225C97.9092 231.358 98.0689 231.463 98.2449 231.532C98.4208 231.601 98.609 231.633 98.7979 231.626C98.9868 231.619 99.1722 231.573 99.3426 231.491C99.5129 231.41 99.6646 231.294 99.7881 231.151C100.014 230.878 100.129 230.53 100.11 230.177C100.091 229.823 99.939 229.49 99.685 229.243L92.5763 222.134C92.5038 222.062 92.4483 221.974 92.4139 221.878C92.3795 221.782 92.367 221.679 92.3774 221.577C92.3878 221.475 92.4207 221.377 92.4739 221.29C92.527 221.202 92.599 221.128 92.6845 221.072C94.3899 219.946 96.3751 219.318 98.4176 219.257C100.46 219.196 102.479 219.706 104.248 220.728V215.125C104.248 214.936 104.286 214.75 104.361 214.576C104.436 214.403 104.546 214.247 104.683 214.118C104.821 213.989 104.984 213.89 105.161 213.827C105.339 213.763 105.528 213.737 105.716 213.75C106.07 213.781 106.4 213.945 106.638 214.209C106.876 214.473 107.006 214.817 107 215.173V220.056L111.527 215.527C111.655 215.399 111.807 215.298 111.974 215.229C112.14 215.16 112.319 215.124 112.5 215.124C112.681 215.124 112.86 215.16 113.026 215.229C113.193 215.298 113.345 215.399 113.473 215.527C113.601 215.655 113.702 215.807 113.771 215.974C113.84 216.14 113.876 216.319 113.876 216.5C113.876 216.681 113.84 216.86 113.771 217.026C113.702 217.193 113.601 217.345 113.473 217.473L108.944 222H113.827C114.183 221.994 114.527 222.124 114.791 222.362C115.055 222.6 115.219 222.93 115.25 223.284C115.262 223.472 115.236 223.661 115.173 223.838C115.109 224.016 115.01 224.178 114.881 224.316C114.752 224.453 114.596 224.563 114.423 224.637C114.25 224.712 114.064 224.75 113.875 224.75Z" fill="#011627"/>
<path d="M113.875 -25.25H108.279C109.489 -23.1525 109.974 -20.7141 109.657 -18.3132C109.34 -15.9122 108.24 -13.6828 106.527 -11.9709C105.063 -10.4773 103.157 -9.06281 101.053 -7.75828C100.921 -7.67813 100.767 -7.64455 100.614 -7.66294C100.461 -7.68133 100.318 -7.75062 100.209 -7.85969L94.2211 -13.8478C94.0909 -13.9781 93.9357 -14.0809 93.765 -14.1501C93.5943 -14.2193 93.4113 -14.2534 93.2271 -14.2505C93.0429 -14.2476 92.8612 -14.2078 92.6927 -14.1333C92.5242 -14.0588 92.3724 -13.9512 92.2463 -13.8169C92.0036 -13.5446 91.8755 -13.1892 91.8886 -12.8247C91.9017 -12.4603 92.0551 -12.115 92.3167 -11.8609L97.4524 -6.72531C97.5291 -6.64874 97.5866 -6.55512 97.6202 -6.45208C97.6539 -6.34904 97.6627 -6.23952 97.6459 -6.13243C97.6291 -6.02535 97.5873 -5.92375 97.5238 -5.83591C97.4603 -5.74808 97.3769 -5.6765 97.2805 -5.62703C90.4553 -2.08297 83.1094 0.280312 82.0403 0.61375C81.5289 0.851997 80.9566 0.927185 80.401 0.829117C79.8454 0.731045 79.3334 0.464462 78.9345 0.0655251C78.5355 -0.333412 78.269 -0.845398 78.1709 -1.40099C78.0728 -1.95658 78.148 -2.5289 78.3863 -3.04031C78.8555 -4.53734 83.3706 -18.5555 89.5341 -25.9598C89.5953 -26.0331 89.6712 -26.0928 89.7568 -26.1351C89.8424 -26.1775 89.9359 -26.2015 90.0313 -26.2057C90.1267 -26.2099 90.2219 -26.1942 90.3109 -26.1596C90.3999 -26.1249 90.4807 -26.0721 90.5481 -26.0045L97.7755 -18.7755C97.9092 -18.6419 98.0689 -18.5373 98.2449 -18.4682C98.4208 -18.3991 98.609 -18.367 98.7979 -18.374C98.9868 -18.3809 99.1722 -18.4267 99.3426 -18.5085C99.5129 -18.5903 99.6646 -18.7063 99.7881 -18.8494C100.014 -19.122 100.129 -19.4699 100.11 -19.8235C100.091 -20.1771 99.939 -20.5105 99.685 -20.7572L92.5763 -27.8659C92.5038 -27.9381 92.4483 -28.0256 92.4139 -28.1219C92.3795 -28.2182 92.367 -28.3211 92.3774 -28.4228C92.3878 -28.5246 92.4207 -28.6228 92.4739 -28.7102C92.527 -28.7976 92.599 -28.8721 92.6845 -28.9281C94.3899 -30.0538 96.3751 -30.6823 98.4176 -30.743C100.46 -30.8037 102.479 -30.2943 104.248 -29.2719V-34.875C104.248 -35.0636 104.286 -35.2504 104.361 -35.4235C104.436 -35.5967 104.546 -35.7526 104.683 -35.8816C104.821 -36.0106 104.984 -36.1098 105.161 -36.1732C105.339 -36.2366 105.528 -36.2627 105.716 -36.25C106.07 -36.2192 106.4 -36.0552 106.638 -35.7911C106.876 -35.5271 107.006 -35.1825 107 -34.8269V-29.9439L111.527 -34.4728C111.655 -34.6006 111.807 -34.7019 111.974 -34.771C112.14 -34.8402 112.319 -34.8758 112.5 -34.8758C112.681 -34.8758 112.86 -34.8402 113.026 -34.771C113.193 -34.7019 113.345 -34.6006 113.473 -34.4728C113.601 -34.3451 113.702 -34.1934 113.771 -34.0265C113.84 -33.8596 113.876 -33.6807 113.876 -33.5C113.876 -33.3193 113.84 -33.1404 113.771 -32.9735C113.702 -32.8066 113.601 -32.6549 113.473 -32.5272L108.944 -28H113.827C114.183 -28.0057 114.527 -27.8764 114.791 -27.6381C115.055 -27.3999 115.219 -27.0704 115.25 -26.7161C115.262 -26.528 115.236 -26.3394 115.173 -26.1619C115.109 -25.9844 115.01 -25.8219 114.881 -25.6844C114.752 -25.5469 114.596 -25.4374 114.423 -25.3627C114.25 -25.2879 114.064 -25.2496 113.875 -25.25Z" fill="#011627"/>
<path d="M184.843 142.128C184.673 141.996 184.475 141.904 184.265 141.859C184.054 141.815 183.836 141.819 183.627 141.871L172.793 144.579L161.921 139.142C161.618 138.991 161.271 138.953 160.942 139.036L149.6 141.871C149.293 141.948 149.021 142.125 148.827 142.374C148.632 142.623 148.526 142.93 148.526 143.246V168.767C148.526 168.982 148.575 169.195 148.67 169.388C148.764 169.582 148.902 169.751 149.072 169.884C149.241 170.017 149.439 170.109 149.65 170.153C149.861 170.198 150.079 170.194 150.288 170.142L161.121 167.434L171.994 172.871C172.191 172.968 172.408 173.019 172.629 173.02C172.744 173.02 172.86 173.006 172.972 172.977L184.315 170.142C184.621 170.065 184.894 169.888 185.088 169.639C185.283 169.39 185.389 169.083 185.389 168.767V143.246C185.389 143.031 185.339 142.818 185.245 142.624C185.15 142.43 185.013 142.261 184.843 142.128ZM161.286 164.513C161.17 164.513 161.055 164.528 160.942 164.556L151.362 166.95V144.354L161.121 141.914L161.286 141.995V164.513ZM182.553 167.659L172.793 170.099L172.629 170.018V147.5C172.744 147.5 172.86 147.487 172.972 147.459L182.553 145.063V167.659Z" fill="#011627"/>
<g clip-path="url(#clip4_189_787)">
<path d="M215.392 101.491C212.067 100.077 209.294 97.618 207.491 94.487C207.368 94.2744 207.246 94.0632 207.137 93.8442C207.056 93.685 207.04 93.5008 207.09 93.3296C207.141 93.1584 207.256 93.0132 207.411 92.9241L218.107 86.7488C218.226 86.6798 218.363 86.6477 218.501 86.6567C218.638 86.6656 218.77 86.7152 218.88 86.7991C218.989 86.883 219.071 86.9975 219.115 87.1281C219.16 87.2587 219.164 87.3994 219.128 87.5326L215.392 101.491ZM229.095 101.253L221.749 88.5294L218.042 102.371C221.746 103.273 225.647 102.879 229.095 101.253ZM238.567 88.1114C239.004 84.5249 238.262 80.8935 236.452 77.7664C236.329 77.5537 236.207 77.3425 236.071 77.1392C235.974 76.9894 235.823 76.8827 235.649 76.8411C235.476 76.7996 235.293 76.8263 235.138 76.9158L224.442 83.0912C224.323 83.16 224.226 83.2628 224.165 83.3864C224.104 83.51 224.081 83.649 224.099 83.7857C224.117 83.9224 224.175 84.0506 224.266 84.1543C224.357 84.2579 224.477 84.3322 224.61 84.3679L238.567 88.1114ZM239.375 74.4696L238.76 74.8249C238.679 74.8716 238.608 74.9342 238.551 75.0089C238.495 75.0836 238.454 75.1689 238.432 75.2597C238.409 75.3505 238.405 75.445 238.419 75.5374C238.434 75.6298 238.467 75.7184 238.517 75.7977C238.628 75.9908 238.751 76.1793 238.863 76.3739C241.392 80.8508 242.051 86.1452 240.697 91.1054C239.343 96.0656 236.085 100.291 231.632 102.861C227.179 105.432 221.891 106.141 216.918 104.834C211.946 103.527 207.69 100.309 205.077 95.8804C204.965 95.6858 204.852 95.4913 204.751 95.2921C204.708 95.2095 204.647 95.1365 204.575 95.0776C204.502 95.0188 204.418 94.9751 204.328 94.9494C204.238 94.9236 204.144 94.9162 204.051 94.9276C203.958 94.9391 203.869 94.9691 203.788 95.016L203.174 95.3704C202.854 95.5552 202.62 95.8595 202.524 96.2165C202.429 96.5734 202.479 96.9538 202.664 97.2738C205.62 102.394 210.49 106.131 216.201 107.661C221.912 109.192 227.998 108.39 233.118 105.434C238.239 102.478 241.975 97.6082 243.506 91.8969C245.036 86.1856 244.235 80.1002 241.278 74.9796C241.094 74.6596 240.789 74.426 240.432 74.3304C240.075 74.2347 239.695 74.2848 239.375 74.4696ZM224.163 87.136L231.508 99.8593C234.641 97.6862 236.933 94.5049 238.004 90.846L224.163 87.136Z" fill="#011627"/>
</g>
<g clip-path="url(#clip5_189_787)">
<path d="M268.892 183.131C268.974 182.835 268.944 182.52 268.808 182.246C268.672 181.971 268.44 181.756 268.156 181.641C257.114 177.163 246.941 177.499 240.937 182.559C238.866 184.284 237.354 186.585 236.593 189.171C236.107 190.825 235.894 192.547 235.961 194.269C235.964 194.374 235.993 194.478 236.046 194.569C236.099 194.66 236.175 194.736 236.265 194.79C236.356 194.844 236.458 194.875 236.564 194.879C236.669 194.882 236.774 194.859 236.868 194.812L253.773 186.301C253.92 186.228 254.081 186.185 254.244 186.174C254.408 186.164 254.573 186.185 254.728 186.238C254.884 186.29 255.027 186.373 255.151 186.481C255.275 186.59 255.376 186.721 255.448 186.868C255.521 187.016 255.564 187.176 255.575 187.34C255.586 187.504 255.564 187.668 255.512 187.824C255.459 187.979 255.376 188.123 255.268 188.246C255.16 188.37 255.028 188.471 254.881 188.544L236.408 197.842L233.596 199.23C233.306 199.369 233.078 199.612 232.959 199.911C232.839 200.209 232.837 200.542 232.951 200.843C233.016 201.002 233.113 201.146 233.235 201.266C233.358 201.386 233.505 201.48 233.665 201.541C233.826 201.602 233.997 201.629 234.169 201.621C234.34 201.613 234.509 201.57 234.663 201.494L237.989 199.85C239.739 201.571 241.664 202.839 243.733 203.622C243.895 203.684 244.059 203.742 244.222 203.798C246.605 204.612 249.167 204.747 251.622 204.189C259.289 202.497 265.739 194.623 268.892 183.131Z" fill="#011627"/>
</g>
</g>
</g>
<defs>
<clipPath id="clip0_189_787">
<rect width="37.3069" height="37.3069" fill="white" transform="translate(41.4333 115.409) rotate(-13.705)"/>
</clipPath>
<clipPath id="clip1_189_787">
<rect width="40.6961" height="40.6961" fill="white" transform="translate(106.999 87.4625) rotate(-75)"/>
</clipPath>
<clipPath id="clip2_189_787">
<rect width="48" height="48" fill="white" transform="translate(2 23.876) rotate(-9.44383)"/>
</clipPath>
<clipPath id="clip3_189_787">
<rect width="40" height="40" fill="white" transform="translate(-11.1677 166) rotate(18.7118)"/>
</clipPath>
<clipPath id="clip4_189_787">
<rect width="44.5885" height="44.5885" fill="white" transform="translate(195 84) rotate(-30)"/>
</clipPath>
<clipPath id="clip5_189_787">
<rect width="40" height="40" fill="white" transform="translate(237.832 166) rotate(18.7118)"/>
</clipPath>
</defs>
</svg>
